<svg xmlns="http://www.w3.org/2000/svg" width="45" height="45" fill="none" viewBox="0 0 45 45">
  <g class="SEAT">
<path d="M 90,50,L 89.9518182482069,51.96270697309672,L 89.80738906688788,53.92068561318242,L 89.56706039859124,55.86921897821447,L 89.23141121612922,57.80361288064513,L 88.80125012778176,59.719207196130554,L 88.27761342928835,61.611387090178496,L 87.66176260732084,63.4755941356888,L 86.95518130045147,65.3073372946036,L 86.15957172493773,67.10220373721128,L 85.27685057393421,68.8558694730399,L 84.3091444000109,70.56410976772887,L 83.25878449210181,72.22280932078408,L 82.1283012592258,73.82797217969733,L 80.92041813450948,75.37573136654582,L 79.63804501419837,76.86235819388074,L 78.2842712474619,78.2842712474619,L 76.86235819388074,79.63804501419837,L 75.37573136654582,80.92041813450948,L 73.82797217969734,82.1283012592258,L 72.2228093207841,83.25878449210181,L 70.56410976772887,84.3091444000109,L 68.85586947303992,85.2768505739342,L 67.10220373721128,86.15957172493773,L 65.3073372946036,86.95518130045147,L 63.4755941356888,87.66176260732084,L 61.611387090178496,88.27761342928835,L 59.71920719613056,88.80125012778176,L 57.80361288064513,89.23141121612922,L 55.86921897821447,89.56706039859124,L 53.92068561318243,89.80738906688788,L 51.96270697309672,89.9518182482069,L 50,90,L 48.03729302690328,89.9518182482069,L 46.07931438681757,89.80738906688788,L 44.13078102178554,89.56706039859124,L 42.196387119354874,89.23141121612922,L 40.280792803869446,88.80125012778176,L 38.38861290982152,88.27761342928835,L 36.524405864311206,87.66176260732084,L 34.692662705396415,86.95518130045147,L 32.897796262788724,86.15957172493773,L 31.14413052696009,85.27685057393421,L 29.435890232271138,84.3091444000109,L 27.77719067921592,83.25878449210181,L 26.172027820302667,82.1283012592258,L 24.624268633454186,80.92041813450948,L 23.137641806119262,79.63804501419835,L 21.7157287525381,78.2842712474619,L 20.361954985801646,76.86235819388074,L 19.07958186549052,75.37573136654582,L 17.871698740774207,73.82797217969734,L 16.74121550789819,72.22280932078408,L 15.69085559998912,70.56410976772887,L 14.723149426065802,68.85586947303992,L 13.840428275062266,67.10220373721128,L 13.044818699548529,65.3073372946036,L 12.338237392679176,63.47559413568881,L 11.722386570711649,61.611387090178496,L 11.198749872218244,59.71920719613056,L 10.768588783870783,57.80361288064515,L 10.432939601408762,55.86921897821447,L 10.192610933112128,53.920685613182435,L 10.048181751793102,51.962706973096715,L 10,50.00000000000001,L 10.048181751793102,48.03729302690329,L 10.192610933112121,46.07931438681758,L 10.432939601408762,44.13078102178554,L 10.768588783870783,42.19638711935487,L 11.198749872218244,40.280792803869446,L 11.722386570711642,38.38861290982152,L 12.338237392679169,36.5244058643112,L 13.044818699548529,34.692662705396415,L 13.840428275062266,32.89779626278873,L 14.723149426065795,31.144130526960094,L 15.690855599989114,29.435890232271138,L 16.741215507898183,27.77719067921592,L 17.8716987407742,26.17202782030267,L 19.079581865490518,24.62426863345419,L 20.361954985801635,23.137641806119262,L 21.71572875253809,21.7157287525381,L 23.137641806119255,20.361954985801646,L 24.624268633454165,19.079581865490532,L 26.172027820302674,17.8716987407742,L 27.777190679215913,16.74121550789819,L 29.435890232271127,15.69085559998912,L 31.144130526960083,14.723149426065802,L 32.8977962627887,13.840428275062273,L 34.69266270539639,13.044818699548543,L 36.524405864311206,12.338237392679169,L 38.388612909821504,11.722386570711649,L 40.28079280386943,11.198749872218244,L 42.19638711935485,10.76858878387079,L 44.13078102178551,10.432939601408762,L 46.07931438681758,10.192610933112121,L 48.03729302690328,10.048181751793102,L 49.99999999999999,10,L 51.96270697309671,10.048181751793102,L 53.92068561318241,10.192610933112121,L 55.86921897821448,10.432939601408762,L 57.80361288064513,10.768588783870783,L 59.719207196130554,11.198749872218244,L 61.61138709017848,11.722386570711642,L 63.47559413568878,12.338237392679162,L 65.3073372946036,13.044818699548536,L 67.10220373721128,13.840428275062266,L 68.8558694730399,14.723149426065795,L 70.56410976772887,15.690855599989114,L 72.22280932078408,16.741215507898183,L 73.82797217969731,17.871698740774193,L 75.37573136654582,19.079581865490525,L 76.86235819388074,20.361954985801635,L 78.2842712474619,21.71572875253809,L 79.63804501419835,23.137641806119255,L 80.92041813450946,24.624268633454165,L 82.1283012592258,26.17202782030267,L 83.25878449210181,27.777190679215913,L 84.30914440001088,29.435890232271124,L 85.27685057393418,31.144130526960083,L 86.15957172493773,32.8977962627887,L 86.95518130045146,34.69266270539639,L 87.66176260732084,36.5244058643112,L 88.27761342928835,38.388612909821504,L 88.80125012778176,40.28079280386943,L 89.2314112161292,42.19638711935485,L 89.56706039859124,44.1307810217855,L 89.80738906688788,46.07931438681758,L 89.9518182482069,48.03729302690328,L 90,49.99999999999999,Z" />
  </g>
</svg>