<svg xmlns="http://www.w3.org/2000/svg" width="870" height="864" fill="none" viewBox="0 0 870 864">
  <g id="stade test" class="stade test">
    <g id="stadium" class="stadium">
      <path id="STADIUM" fill="#fff" stroke="#B7B6B8" stroke-width="9" d="M116.5 4.5H112V9V92.6299L5.82545 198.311L4.5 199.63V201.5V666.5V668.322L5.76746 669.631L112 779.322V855V859.5H116.5H722H726.5V855V755.259L813.471 661H861H865.5V656.5V211.5V207H861H833.284L726.5 106.555V9V4.5H722H116.5Z" class="STADIUM"/>
    </g>
    <g id="field" class="field">
      <g id="Vector" class="Vector">
        <path fill="#78924A" d="M175.459 267H259.194V349.052H175.459V267Z"/>
        <path fill="#5F783A" d="M259.194 267H342.928V349.052H259.194V267Z"/>
        <path fill="#78924A" d="M342.928 267H426.663V349.052H342.928V267Z"/>
        <path fill="#5F783A" d="M426.663 267H510.398V349.052H426.663V267Z"/>
        <path fill="#78924A" d="M510.398 267H603.541V349.052H510.398V267Z"/>
        <path fill="#5F783A" d="M603.541 267H695.743V349.052H603.541V267ZM175.459 349.052H259.194V432.036H175.459V349.052Z"/>
        <path fill="#78924A" d="M259.194 349.052H342.928V432.036H259.194V349.052Z"/>
        <path fill="#5F783A" d="M342.928 349.052H426.663V432.036H342.928V349.052Z"/>
        <path fill="#78924A" d="M426.663 349.052H510.398V432.036H426.663V349.052Z"/>
        <path fill="#5F783A" d="M510.398 349.052H603.541V432.036H510.398V349.052Z"/>
        <path fill="#78924A" d="M603.541 349.052H695.743V432.036H603.541V349.052ZM175.459 432.036H259.194V514.088H175.459V432.036Z"/>
        <path fill="#5F783A" d="M259.194 432.036H342.928V514.088H259.194V432.036Z"/>
        <path fill="#78924A" d="M342.928 432.036H426.663V514.088H342.928V432.036Z"/>
        <path fill="#5F783A" d="M426.663 432.036H510.398V514.088H426.663V432.036Z"/>
        <path fill="#78924A" d="M510.398 432.036H603.541V514.088H510.398V432.036Z"/>
        <path fill="#5F783A" d="M603.541 432.036H695.743V514.088H603.541V432.036ZM175.459 514.088H259.194V597.073H175.459V514.088Z"/>
        <path fill="#78924A" d="M259.194 514.088H342.928V597.073H259.194V514.088Z"/>
        <path fill="#5F783A" d="M342.928 514.088H426.663V597.073H342.928V514.088Z"/>
        <path fill="#78924A" d="M426.663 514.088H510.398V597.073H426.663V514.088Z"/>
        <path fill="#5F783A" d="M510.398 514.088H603.541V597.073H510.398V514.088Z"/>
        <path fill="#78924A" d="M603.541 514.088H695.743V597.073H603.541V514.088Z"/>
      </g>
      <path id="Union" fill="#fff" fill-rule="evenodd" d="M176.392 265H174.392V267V412.321H168H166V414.321V447.887V449.887H168H174.392V597.073V599.073H176.392H692.014H694.014V597.073V528.21H694.946V526.21V475.995V473.995V449.887H702.27H704.27V447.887V414.321V412.321H702.27H694.946V389.146V387.146V338.795V336.795H694.014V267V265H692.014H176.392ZM177.324 528.21H176.392V595.073V597.073H178.392H690.014H692.014V595.073V528.21H616.488H614.488V526.21V463.003C609.112 459.721 604.625 455.159 601.433 449.718C598.083 444.009 596.273 437.528 596.18 430.909C596.087 424.29 597.714 417.761 600.902 411.96C604.09 406.159 608.73 401.285 614.367 397.815L614.488 398.012V338.795V336.795H616.488H692.014V269V267H690.014H435.668V388.102C459.01 388.875 477.694 408.041 477.694 431.57C477.694 455.099 459.01 474.265 435.668 475.038V594.742H433.668V475.059C409.894 474.773 390.71 455.412 390.71 431.57C390.71 407.728 409.894 388.367 433.668 388.081V267H178.392H176.392V269V336.795H177.324H253.782H255.782V338.795V397.74C261.435 401.191 266.096 406.052 269.306 411.846C272.521 417.649 274.17 424.189 274.092 430.823C274.013 437.456 272.21 443.955 268.859 449.681C265.666 455.138 261.171 459.714 255.782 463.003V526.21V528.21H253.782H177.324ZM173.459 414.321H174.392V447.887H173.459H170H168V445.887V416.321V414.321H170H173.459ZM692.014 475.995V526.21H690.946H618.488H616.488V524.21V340.795V338.795H618.488H690.946H692.014V387.146H671.5H669.5V389.146V473.995V475.995H671.5H692.014ZM692.014 389.146V473.995H690.946H673.5H671.5V471.995V391.146V389.146H673.5H690.946H692.014ZM614.488 400.306V460.437C609.916 457.408 606.086 453.37 603.3 448.623C600.14 443.237 598.432 437.123 598.345 430.879C598.257 424.635 599.792 418.475 602.799 413.002C605.614 407.882 609.627 403.527 614.488 400.306ZM694.946 447.887H696.811H700.27H702.27V445.887V416.321V414.321H700.27H696.811H694.946V447.887ZM255.782 460.437C260.366 457.401 264.204 453.35 266.991 448.587C270.152 443.186 271.853 437.055 271.927 430.797C272.001 424.539 270.445 418.37 267.412 412.895C264.6 407.819 260.608 403.503 255.782 400.306V460.437ZM177.324 473.995V449.887H177.459V447.887V414.321V412.321H177.324V389.146H179.324H196.769H198.769V391.146V471.995V473.995H196.769H179.324H177.324ZM177.324 475.995H198.769H200.769V473.995V389.146V387.146H198.769H177.324L177.324 340.795V338.795H179.324H251.782H253.782V340.795V524.21V526.21H251.782H179.324H177.324V524.21L177.324 475.995ZM475.694 431.57C475.694 453.995 457.905 472.265 435.668 473.037V390.103C457.905 390.876 475.694 409.145 475.694 431.57ZM433.668 473.059V390.081C410.999 390.367 392.71 408.833 392.71 431.57C392.71 454.307 410.999 472.773 433.668 473.059Z" class="Union" clip-rule="evenodd"/>
    </g>
    <g id="grandstand4" class="grandstand4">
      <path id="Vector 22" fill="#E7E6E8" stroke="#AFAEB0" stroke-width="2" d="M114.423 557L115.423 557L115.423 556L115.423 546.229L147.084 546.229L147.084 556L147.084 557L148.084 557L154 557L155 557L155 556L155 493L155 492L154 492L148.084 492L147.084 492L147.084 493L147.084 500.332L115.423 500.332L115.423 493L115.423 492L114.423 492L42 492L41 492L41 493L41 556L41 557L42 557L114.423 557Z" class="Vector 22"/>
    </g>
    <g id="grandstand3" class="grandstand3">
      <path id="Vector 22_2" fill="#E7E6E8" stroke="#AFAEB0" stroke-width="2" d="M755.577 554L754.577 554L754.577 553L754.577 543.229L722.916 543.229L722.916 553L722.916 554L721.916 554L716 554L715 554L715 553L715 490L715 489L716 489L721.916 489L722.916 489L722.916 490L722.916 497.332L754.577 497.332L754.577 490L754.577 489L755.577 489L828 489L829 489L829 490L829 553L829 554L828 554L755.577 554Z" class="Vector 22"/>
    </g>
    <g id="grandstand2" class="grandstand2">
      <path id="Vector 20" fill="#E7E6E8" stroke="#AFAEB0" stroke-width="2" d="M572 696.967V695.967H573H591.148V638.459H573H572V637.459V627V626H573H685H686V627V637.459V638.459H685H671.187V695.967H685H686V696.967V825V826H685H573H572V825V696.967Z" class="Vector 20"/>
    </g>
    <g id="grandstand4_2" class="grandstand4">
      <path id="Vector 22_3" fill="#E7E6E8" stroke="#AFAEB0" stroke-width="2" d="M114.423 465L115.423 465L115.423 464L115.423 454.229L147.084 454.229L147.084 464L147.084 465L148.084 465L154 465L155 465L155 464L155 401L155 400L154 400L148.084 400L147.084 400L147.084 401L147.084 408.332L115.423 408.332L115.423 401L115.423 400L114.423 400L42 400L41 400L41 401L41 464L41 465L42 465L114.423 465Z" class="Vector 22"/>
    </g>
    <g id="grandstand1" class="grandstand1">
      <path id="Vector 8" fill="#E7E6E8" stroke="#AFAEB0" stroke-width="2" d="M197 167.033V168.033H198H216.148V225.541H198H197V226.541V237V238H198H310H311V237V226.541V225.541H310H296.187V168.033H310H311V167.033V39V38H310H198H197V39V167.033Z" class="Vector 8"/>
    </g>
    <path id="image" fill="#D9D9D9" d="M16 143H179V256H16z" class="image"/>
    <g id="grandstand4_3" class="grandstand4">
      <path id="Vector 22_4" fill="#E7E6E8" stroke="#AFAEB0" stroke-width="2" d="M114.423 372L115.423 372L115.423 371L115.423 361.229L147.084 361.229L147.084 371L147.084 372L148.084 372L154 372L155 372L155 371L155 308L155 307L154 307L148.084 307L147.084 307L147.084 308L147.084 315.332L115.423 315.332L115.423 308L115.423 307L114.423 307L42 307L41 307L41 308L41 371L41 372L42 372L114.423 372Z" class="Vector 22"/>
    </g>
    <g id="grandstand3_2" class="grandstand3">
      <path id="Vector 22_5" fill="#E7E6E8" stroke="#AFAEB0" stroke-width="2" d="M755.577 372L754.577 372L754.577 371L754.577 361.229L722.916 361.229L722.916 371L722.916 372L721.916 372L716 372L715 372L715 371L715 308L715 307L716 307L721.916 307L722.916 307L722.916 308L722.916 315.332L754.577 315.332L754.577 308L754.577 307L755.577 307L828 307L829 307L829 308L829 371L829 372L828 372L755.577 372Z" class="Vector 22"/>
    </g>
    <g id="grandstand3_3" class="grandstand3">
      <path id="Vector 22_6" fill="#E7E6E8" stroke="#AFAEB0" stroke-width="2" d="M755.577 462L754.577 462L754.577 461L754.577 451.229L722.916 451.229L722.916 461L722.916 462L721.916 462L716 462L715 462L715 461L715 398L715 397L716 397L721.916 397L722.916 397L722.916 398L722.916 405.332L754.577 405.332L754.577 398L754.577 397L755.577 397L828 397L829 397L829 398L829 461L829 462L828 462L755.577 462Z" class="Vector 22"/>
    </g>
    <g id="grandstand2_2" class="grandstand2">
      <path id="Vector 20_2" fill="#E7E6E8" stroke="#AFAEB0" stroke-width="2" d="M197 696.967V695.967H198H216.148V638.459H198H197V637.459V627V626H198H310H311V627V637.459V638.459H310H296.187V695.967H310H311V696.967V825V826H310H198H197V825V696.967Z" class="Vector 20"/>
    </g>
    <g id="grandstand2_3" class="grandstand2">
      <path id="Vector 20_3" fill="#E7E6E8" stroke="#AFAEB0" stroke-width="2" d="M322 696.967V695.967H323H341.148V638.459H323H322V637.459V627V626H323H435H436V627V637.459V638.459H435H421.187V695.967H435H436V696.967V825V826H435H323H322V825V696.967Z" class="Vector 20"/>
    </g>
    <g id="grandstand2_4" class="grandstand2">
      <path id="Vector 20_4" fill="#E7E6E8" stroke="#AFAEB0" stroke-width="2" d="M447 696.967V695.967H448H466.148V638.459H448H447V637.459V627V626H448H560H561V627V637.459V638.459H560H546.187V695.967H560H561V696.967V825V826H560H448H447V825V696.967Z" class="Vector 20"/>
    </g>
    <g id="grandstand1_2" class="grandstand1">
      <path id="Vector 8_2" fill="#E7E6E8" stroke="#AFAEB0" stroke-width="2" d="M322 167.033V168.033H323H341.148V225.541H323H322V226.541V237V238H323H435H436V237V226.541V225.541H435H421.187V168.033H435H436V167.033V39V38H435H323H322V39V167.033Z" class="Vector 8"/>
    </g>
    <g id="grandstand1_3" class="grandstand1">
      <path id="Vector 8_3" fill="#E7E6E8" stroke="#AFAEB0" stroke-width="2" d="M447 167.033V168.033H448H466.148V225.541H448H447V226.541V237V238H448H560H561V237V226.541V225.541H560H546.187V168.033H560H561V167.033V39V38H560H448H447V39V167.033Z" class="Vector 8"/>
    </g>
    <g id="grandstand1_4" class="grandstand1">
      <path id="Vector 8_4" fill="#E7E6E8" stroke="#AFAEB0" stroke-width="2" d="M572 167.033V168.033H573H591.148V225.541H573H572V226.541V237V238H573H685H686V237V226.541V225.541H685H671.187V168.033H685H686V167.033V39V38H685H573H572V39V167.033Z" class="Vector 8"/>
    </g>
  </g>
</svg>
