<svg width="539" height="335" viewBox="0 0 539 335" fill="none" xmlns="http://www.w3.org/2000/svg">
    <MetaInfo xmlns="http://www.prognoz.ru"><Geo>
        <GeoItem X="-595.30" Y="-142.88" Latitude="37.375593" Longitude="-121.977795"/>
        <GeoItem X="1388.66" Y=" 622.34" Latitude="37.369930" Longitude="-121.959404"/>
    </Geo></MetaInfo>
    <path fill-rule="evenodd" clip-rule="evenodd" d="M10.3917 0H8.39168V2V147.321H2H0V149.321V182.887V184.887H2H8.39168V332.073V334.073H10.3917H526.014H528.014V332.073V263.21H528.946V261.21V210.995V208.995V184.887H536.27H538.27V182.887V149.321V147.321H536.27H528.946V124.146V122.146V73.7955V71.7955H528.014V2V0H526.014H10.3917ZM11.3241 263.21H10.3917V330.073V332.073H12.3917H524.014H526.014V330.073V263.21H450.488H448.488V261.21V198.003C443.099 194.714 438.604 190.138 435.411 184.681C432.06 178.955 430.256 172.456 430.178 165.823C430.1 159.189 431.749 152.649 434.964 146.846C438.174 141.052 442.834 136.191 448.488 132.74V73.7955V71.7955H450.488H526.014V4V2H524.014H269.668V123.102C293.01 123.875 311.694 143.041 311.694 166.57C311.694 190.099 293.01 209.265 269.668 210.038V329.742H267.668V210.059C243.894 209.773 224.71 190.412 224.71 166.57C224.71 142.728 243.894 123.367 267.668 123.081V2H12.3917H10.3917V4V71.7955H11.3241H87.7816H89.7816V73.7955V132.74C95.4355 136.191 100.096 141.052 103.306 146.846C106.521 152.649 108.17 159.189 108.092 165.823C108.013 172.456 106.21 178.955 102.859 184.681C99.6656 190.138 95.1706 194.714 89.7816 198.003V261.21V263.21H87.7816H11.3241ZM7.45927 149.321H8.39168V182.887H7.45927H4H2V180.887V151.321V149.321H4H7.45927ZM526.014 210.995V261.21H524.946H452.488H450.488V259.21V75.7955V73.7955H452.488H524.946H526.014V122.146H505.5H503.5V124.146V208.995V210.995H505.5H526.014ZM526.014 124.146V208.995H524.946H507.5H505.5V206.995V126.146V124.146H507.5H524.946H526.014ZM448.488 135.306V195.437C443.904 192.401 440.066 188.35 437.279 183.587C434.118 178.186 432.417 172.055 432.343 165.797C432.269 159.539 433.825 153.37 436.858 147.895C439.67 142.819 443.662 138.503 448.488 135.306ZM528.946 182.887H530.811H534.27H536.27V180.887V151.321V149.321H534.27H530.811H528.946V182.887ZM89.7816 195.437C94.3658 192.401 98.2036 188.35 100.991 183.587C104.152 178.186 105.853 172.055 105.927 165.797C106.001 159.539 104.445 153.37 101.412 147.895C98.6001 142.819 94.6082 138.503 89.7816 135.306V195.437ZM11.3241 208.995V184.887H11.4593V182.887V149.321V147.321H11.3241V124.146H13.3241H30.7695H32.7695V126.146V206.995V208.995H30.7695H13.3241H11.3241ZM11.3241 210.995H32.7695H34.7695V208.995V124.146V122.146H32.7695H11.3241L11.3241 75.7955V73.7955H13.3241H85.7816H87.7816V75.7955V259.21V261.21H85.7816H13.3241H11.3241V259.21L11.3241 210.995ZM309.694 166.57C309.694 188.995 291.905 207.265 269.668 208.037V125.103C291.905 125.876 309.694 144.145 309.694 166.57ZM267.668 208.059V125.081C244.999 125.367 226.71 143.833 226.71 166.57C226.71 189.307 244.999 207.773 267.668 208.059Z" fill="white"/>
</svg>
